<svg viewBox="0 0 120 70" fill="none" xmlns="http://www.w3.org/2000/svg">
    <path d="M2.71193 69.384C3.19193 69.384 3.57593 69.288 3.95993 69.096L4.82393 68.52C5.39993 68.136 5.97593 67.656 6.35993 67.08C7.31993 66.12 8.18393 65.064 8.95193 63.912C10.4879 61.8 11.8319 59.496 13.1759 57.192C14.6159 54.888 15.8639 52.488 17.1119 50.184C18.3599 47.784 19.6079 45.48 20.7599 42.984C20.7599 42.888 20.7599 42.696 20.5679 42.696H20.3759L20.1839 42.792C19.0319 45.192 17.7839 47.496 16.5359 49.896C15.2879 52.2 13.9439 54.504 12.5999 56.808C11.2559 59.112 9.81593 61.32 8.18393 63.432C7.41593 64.488 6.64793 65.544 5.68793 66.408L4.24793 67.752L3.47993 68.136C3.28793 68.232 2.99993 68.328 2.80793 68.328L2.61593 68.232C2.42393 68.232 2.42393 68.232 2.32793 68.04L1.94393 67.272C1.75193 66.792 1.55993 66.216 1.46393 65.544C1.36793 64.968 1.36793 64.392 1.36793 63.72L1.27193 62.856L1.36793 61.896C1.36793 60.552 1.46393 59.304 1.65593 58.056C1.75193 56.808 1.94393 55.56 2.23193 54.312C2.90393 50.472 3.76793 46.632 4.82393 42.888C7.70393 39.24 10.3919 35.4 12.7919 31.464C14.2319 29.256 15.4799 27.048 16.7279 24.84C17.9759 22.536 19.2239 20.328 20.3759 18.024C21.5279 15.72 22.5839 13.32 23.5439 10.92C24.0239 9.768 24.4079 8.52 24.7919 7.272C24.9839 6.6 25.1759 6.024 25.2719 5.352C25.3679 4.68 25.5599 4.104 25.5599 3.336C25.5599 3.048 25.5599 2.664 25.4639 2.28C25.4639 1.896 25.3679 1.512 24.9839 1.128C24.9839 1.032 24.8879 0.935997 24.7919 0.935997C24.6959 0.839998 24.5999 0.743999 24.5039 0.743999C24.2159 0.552002 24.0239 0.552002 23.7359 0.552002H23.4479C23.1599 0.552002 22.7759 0.743999 22.4879 0.839998C22.1999 0.935997 21.9119 1.128 21.6239 1.416C21.3359 1.608 21.0479 1.8 20.8559 2.088C20.3759 2.568 19.8959 3.048 19.5119 3.624C18.6479 4.584 17.9759 5.736 17.3039 6.792C16.6319 7.944 15.9599 9.096 15.3839 10.248C14.1359 12.456 13.0799 14.856 11.9279 17.16L8.95193 24.264C7.99193 26.664 7.12793 29.16 6.26393 31.56L3.95993 38.952C3.28793 41.448 2.61593 43.944 2.03993 46.44C1.75193 47.688 1.46393 48.936 1.27193 50.28C0.983926 51.528 0.791926 52.776 0.599926 54.024C0.215926 56.616 0.0239258 59.208 0.0239258 61.8C0.0239258 62.472 0.0239258 63.144 0.119926 63.816C0.119926 64.104 0.119926 64.488 0.215926 64.776L0.311926 65.736C0.503926 66.408 0.599926 67.08 0.887926 67.752L1.46393 68.712C1.55993 68.808 1.65593 68.904 1.75193 68.904C1.84793 69 1.84793 69.096 2.03993 69.096C2.23193 69.288 2.42393 69.384 2.71193 69.384ZM5.30393 41.064C5.49593 40.488 5.68793 40.008 5.78393 39.432L8.08793 32.136L10.6799 24.936C12.5039 20.232 14.5199 15.528 16.8239 10.92C17.9759 8.712 19.2239 6.504 20.6639 4.488C21.0479 4.008 21.4319 3.432 21.8159 3.048C22.1999 2.568 22.6799 2.184 23.0639 1.896L23.7359 1.8L24.1199 1.896C24.2159 1.992 24.4079 2.28 24.4079 2.472C24.5039 2.76 24.5039 3.048 24.5039 3.336C24.5039 3.912 24.4079 4.584 24.3119 5.16C24.2159 5.736 24.0239 6.408 23.8319 6.984C23.5439 8.232 23.1599 9.384 22.6799 10.632C21.8159 13.032 20.7599 15.336 19.6079 17.64C17.3999 22.248 14.9039 26.76 12.2159 31.08C10.8719 33.288 9.43193 35.4 7.99193 37.512C7.12793 38.664 6.26393 39.912 5.30393 41.064Z" fill="currentColor"/>
    <path d="M21.2122 54.312C21.2122 54.216 21.3082 54.216 21.4042 54.216L21.7882 54.12L22.3642 53.832C22.7482 53.544 23.0362 53.16 23.2282 52.872C23.8042 52.296 24.1882 51.624 24.5722 50.856L25.5322 48.84C26.0122 47.4 26.4922 45.864 26.8762 44.424C27.2602 42.888 27.4522 41.352 27.4522 39.816C27.4522 39.048 27.4522 38.28 27.1642 37.512C26.9722 37.128 26.7802 36.744 26.3962 36.456C26.0122 36.168 25.6282 36.072 25.1482 36.072C25.0522 36.072 24.8602 36.168 24.8602 36.36C24.8602 36.456 24.9562 36.648 25.1482 36.648C25.5322 36.648 25.8202 36.744 26.0122 36.936C26.3002 37.128 26.4922 37.416 26.5882 37.704C26.8762 38.376 26.8762 39.144 26.8762 39.816C26.8762 41.352 26.5882 42.792 26.2042 44.232C25.8202 45.672 25.3402 47.112 24.7642 48.456L23.8042 50.472C23.4202 51.144 23.0362 51.72 22.5562 52.296L21.7882 52.968L21.4042 53.16H21.1162C20.8282 53.064 20.7322 52.968 20.5402 52.776C20.3482 52.584 20.2522 52.296 20.2522 52.008C20.0602 51.336 20.0602 50.664 20.0602 49.896C20.0602 49.224 20.1562 48.552 20.3482 47.784C20.4442 47.112 20.6362 46.44 20.8282 45.672L21.5962 43.656C22.2682 42.408 23.0362 41.16 23.9002 40.104C24.0922 40.008 24.1882 39.72 24.1882 39.528C24.1882 39.24 24.0922 39.048 23.9002 38.856C23.7082 38.664 23.4202 38.568 23.2282 38.568C22.9402 38.568 22.7482 38.664 22.5562 38.856C21.9802 39.528 21.5002 40.104 21.1162 40.872C20.6362 41.544 20.3482 42.216 19.9642 42.984C19.6762 43.656 19.3882 44.424 19.1962 45.192C19.0042 45.96 18.8122 46.728 18.7162 47.496C18.5242 48.36 18.5242 49.128 18.5242 49.896C18.5242 50.28 18.5242 50.76 18.6202 51.144C18.6202 51.528 18.7162 52.008 18.9082 52.392C19.0042 52.776 19.1962 53.256 19.5802 53.544C19.7722 53.736 19.9642 53.928 20.2522 54.024C20.4442 54.216 20.7322 54.216 21.0202 54.216C21.0202 54.312 21.1162 54.312 21.2122 54.312Z" fill="currentColor"/>
    <path d="M31.0604 55.08L31.5404 54.984L32.2124 54.6C32.5964 54.312 32.8844 53.928 33.1724 53.544C33.7484 52.872 34.2284 52.104 34.6124 51.336C34.9964 50.664 35.2844 49.8 35.6684 49.032L36.5324 46.632L37.2044 44.232C37.6844 42.6 38.0684 40.968 38.3564 39.24C38.4524 38.376 38.5484 37.608 38.5484 36.744V36.648L38.7404 36.84C39.4124 37.608 40.1804 38.184 41.0444 38.568C41.9084 39.048 42.7724 39.336 43.7324 39.528L45.0764 39.72C45.5564 39.72 46.0364 39.72 46.5164 39.624C46.6124 39.624 46.7084 39.528 46.7084 39.336C46.7084 39.24 46.6124 39.144 46.5164 39.144L45.1724 39.048L43.8284 38.76C43.0604 38.568 42.1964 38.184 41.5244 37.8C40.7564 37.32 40.1804 36.744 39.6044 36.168C39.1244 35.496 38.6444 34.728 38.3564 33.96H38.2604V33.864C38.1644 33.672 37.9724 33.576 37.6844 33.576H37.4924C37.3004 33.672 37.1084 33.864 37.1084 34.152V34.536L37.2044 34.632L37.5884 35.4L37.6844 35.496C37.7804 35.88 37.8764 36.264 37.8764 36.744V37.416L37.7804 39.144C37.6844 40.008 37.4924 40.872 37.3004 41.64L36.7244 44.04L35.9564 46.44L34.9964 48.744L33.8444 50.952C33.4604 51.72 32.9804 52.392 32.5004 52.968L31.6364 53.736C31.3484 53.928 31.0604 53.928 30.8684 53.928C30.7724 53.832 30.6764 53.832 30.6764 53.736L30.4844 53.352C30.3884 53.064 30.2924 52.68 30.2924 52.296C30.2924 51.528 30.2924 50.664 30.3884 49.896C30.3884 49.128 30.5804 48.264 30.6764 47.496C31.2524 44.232 32.0204 40.968 32.8844 37.704L32.9804 37.416C32.9804 37.032 32.6924 36.744 32.3084 36.552H32.1164C31.7324 36.552 31.2524 36.84 31.1564 37.224C30.8684 38.088 30.6764 38.856 30.4844 39.72L29.9084 42.216C29.5244 43.848 29.2364 45.48 29.0444 47.208C28.9484 48.072 28.8524 48.936 28.8524 49.8L28.7564 51.144L28.8524 52.488C28.9484 52.872 29.0444 53.352 29.2364 53.832L29.7164 54.504C30.0044 54.792 30.2924 54.984 30.5804 54.984L31.0604 55.08Z" fill="currentColor"/>
    <path d="M51.6667 55.656L52.6267 55.464C53.4907 55.272 54.1627 54.792 54.7387 54.312C55.4107 53.832 55.8907 53.256 56.4667 52.68L57.9067 50.856C58.7707 49.704 59.6347 48.36 60.4027 47.112L61.5547 45.096C61.9387 44.424 62.3227 43.848 62.6107 43.08V42.984L62.5147 42.696C62.4187 42.696 62.2267 42.696 62.1307 42.888C61.8427 43.56 61.4587 44.232 61.0747 44.904C60.6907 45.576 60.4027 46.152 59.9227 46.824C59.1547 48.072 58.2907 49.32 57.4267 50.568C56.4667 51.72 55.5067 52.872 54.3547 53.736C53.7787 54.216 53.1067 54.504 52.4347 54.696C52.1467 54.696 51.7627 54.696 51.5707 54.6C51.3787 54.6 51.2827 54.504 51.1867 54.408C51.0907 54.408 50.9947 54.312 50.9947 54.216C50.8987 53.928 50.8027 53.64 50.8027 53.352C50.7067 52.968 50.7067 52.68 50.7067 52.296L50.9947 50.184L51.5707 48.072C51.7627 47.304 51.9547 46.632 52.2427 45.864L53.6827 41.64L55.4107 37.512L55.5067 37.128C55.5067 36.744 55.3147 36.456 54.9307 36.264L54.5467 36.168C54.1627 36.168 53.7787 36.456 53.6827 36.744L52.2427 40.392L52.1467 39.912C52.0507 39.432 51.9547 38.952 51.6667 38.472C51.4747 37.992 50.9947 37.512 50.4187 37.32C50.3227 37.224 50.1307 37.224 50.0347 37.224C49.9387 37.128 49.7467 37.128 49.6507 37.128H48.7867C48.2107 37.32 47.7307 37.512 47.3467 37.8C46.4827 38.28 45.8107 38.952 45.2347 39.72C44.5627 40.392 44.0827 41.16 43.6027 41.928L42.3547 44.424C41.9707 45.288 41.6827 46.152 41.4907 47.016C41.3947 47.496 41.2987 47.976 41.2987 48.456L41.2027 49.224L41.2987 49.896C41.2987 50.376 41.3947 50.952 41.7787 51.432C41.8747 51.72 42.1627 51.912 42.3547 52.104C42.6427 52.296 42.9307 52.392 43.2187 52.392C43.5067 52.392 43.7947 52.392 44.0827 52.296C44.3707 52.296 44.5627 52.2 44.8507 52.008C45.2347 51.816 45.6187 51.528 46.0027 51.24C47.3467 49.992 48.4027 48.552 49.3627 47.112L50.5147 45.384C50.1307 46.824 49.7467 48.36 49.5547 49.896C49.3627 50.472 49.2667 51.048 49.2667 51.624L49.3627 52.296C49.3627 52.68 49.3627 53.16 49.4587 53.544C49.5547 53.928 49.7467 54.408 50.0347 54.792L50.6107 55.368C50.8027 55.464 51.0907 55.56 51.2827 55.56L51.6667 55.656ZM43.8907 51.336H43.4107C43.1227 51.24 43.0267 51.144 42.8347 50.856C42.7387 50.568 42.7387 50.184 42.7387 49.896C43.0267 45.672 46.8667 38.664 49.5547 38.472L49.7467 38.568C50.8987 38.76 51.4747 40.488 51.4747 42.408C50.9947 44.04 49.7467 45.48 48.8827 46.824C47.5387 48.648 45.7147 51.144 43.8907 51.336Z" fill="currentColor"/>
    <path d="M60.2384 54.696C60.4304 54.696 60.6224 54.504 60.6224 54.312C60.7184 54.216 60.7184 54.12 60.7184 54.024C61.3904 52.584 62.0624 51.144 62.8304 49.704C63.5984 48.264 64.4624 46.824 65.4224 45.384C65.9024 44.712 66.3824 43.944 66.8624 43.368C67.1504 42.984 67.4384 42.696 67.7264 42.504L68.2064 42.12L68.5904 41.928H68.7824V42.024C68.8784 42.024 68.9744 42.12 68.9744 42.312L69.2624 43.368L69.3584 45.864L69.6464 48.456C69.8384 49.32 70.0304 50.184 70.4144 51.048C70.6064 51.432 70.8944 51.912 71.3744 52.2C71.5664 52.392 71.7584 52.488 72.0464 52.584H72.8144C73.7744 52.488 74.6384 52.008 75.3104 51.432C76.7504 50.376 77.8064 48.936 78.7664 47.592C79.7264 46.152 80.4944 44.616 81.3584 43.08C81.3584 42.984 81.3584 42.792 81.1664 42.696C81.0704 42.696 80.8784 42.696 80.7824 42.888C80.1104 44.424 79.2464 45.864 78.2864 47.208C77.8064 47.976 77.3264 48.648 76.7504 49.224C76.1744 49.896 75.5984 50.472 74.9264 50.952L73.8704 51.528C73.4864 51.72 73.1024 51.816 72.8144 51.816C72.4304 51.816 72.1424 51.72 71.9504 51.528C71.6624 51.24 71.5664 50.952 71.4704 50.568C71.1824 49.896 71.0864 49.032 71.0864 48.264L70.8944 45.768C70.8944 45.288 70.7984 44.904 70.7024 44.424C70.7024 44.04 70.6064 43.56 70.5104 43.176C70.4144 42.696 70.3184 42.216 70.0304 41.736C69.9344 41.544 69.7424 41.256 69.4544 41.064C69.2624 40.968 69.0704 40.968 68.8784 40.968H68.3984L67.6304 41.352L66.2864 42.888L64.8464 45C63.5984 47.208 62.3504 49.416 61.2944 51.624L62.8304 45.288L64.1744 40.776C64.3664 40.104 64.6544 39.336 64.9424 38.664C65.1344 37.896 65.4224 37.224 65.8064 36.648L65.9024 36.168C65.9024 35.784 65.7104 35.496 65.3264 35.304L65.0384 35.208C64.6544 35.208 64.2704 35.496 64.0784 35.784L63.2144 38.088C63.0224 38.856 62.8304 39.624 62.5424 40.392L61.4864 44.904C60.8144 47.976 60.2384 51.048 59.7584 54.12V54.216C59.7584 54.408 59.9504 54.6 60.1424 54.6L60.2384 54.696Z" fill="currentColor"/>
    <path d="M90.3164 60.552C90.4124 60.456 90.5084 60.456 90.6044 60.456C90.6044 60.36 90.7004 60.36 90.7964 60.36C90.9884 60.168 91.1804 59.976 91.3724 59.88L92.2364 58.824L93.5804 56.712C94.5404 55.176 95.3084 53.736 96.0764 52.2C96.8444 50.76 97.6124 49.224 98.2844 47.688C99.0524 46.152 99.8204 44.616 100.492 43.08V42.984C100.492 42.888 100.396 42.792 100.3 42.696C100.204 42.696 100.012 42.696 100.012 42.888C98.5724 45.96 97.0364 48.936 95.4044 51.912C94.6364 53.352 93.7724 54.792 92.9084 56.232L91.4684 58.248L90.6044 59.112L90.2204 59.4H89.9324L89.7404 59.304L89.5484 58.92L89.2604 57.864C89.1644 57.096 89.1644 56.328 89.1644 55.464C89.1644 53.832 89.2604 52.2 89.4524 50.568C89.8364 47.688 90.3164 44.808 90.7964 42.024L90.8924 41.832C92.4284 38.856 93.8684 35.784 95.2124 32.712C96.5564 29.64 97.9004 26.472 99.0524 23.304C100.3 20.232 101.452 17.064 102.412 13.8C102.892 12.168 103.372 10.536 103.756 8.904L104.044 7.656C104.14 7.272 104.236 6.792 104.236 6.408C104.332 5.928 104.332 5.544 104.332 5.064V4.392C104.236 4.104 104.236 3.816 104.044 3.528C103.948 3.432 103.852 3.24 103.66 3.144L103.372 3.048H102.796C102.604 3.048 102.316 3.144 102.22 3.24C101.74 3.432 101.356 3.816 101.068 4.104C100.684 4.488 100.492 4.872 100.204 5.16C99.9164 5.544 99.7244 5.928 99.5324 6.312C99.0524 7.08 98.6684 7.848 98.3804 8.616C97.9964 9.384 97.6124 10.152 97.3244 10.92C96.0764 14.088 95.0204 17.352 93.9644 20.616C93.0044 23.784 92.1404 27.048 91.3724 30.408C90.6044 33.48 89.9324 36.648 89.3564 39.816L89.0684 39.048C88.8764 38.568 88.5884 38.184 88.2044 37.8C88.0124 37.608 87.7244 37.416 87.4364 37.32C87.4364 37.224 87.3404 37.224 87.2444 37.224L87.0524 37.128H86.5724C85.9964 37.128 85.4204 37.32 85.0364 37.512L83.7884 38.376C83.1164 39.048 82.5404 39.72 82.0604 40.488C81.5804 41.256 81.1964 42.024 80.8124 42.792C80.0444 44.424 79.4684 46.056 79.2764 47.88V49.224C79.2764 49.704 79.3724 50.184 79.4684 50.664C79.5644 51.144 79.6604 51.624 79.9484 52.008L80.4284 52.68L81.1004 53.16C81.3884 53.256 81.5804 53.352 81.8684 53.352L82.1564 53.448L82.7324 53.256C83.2124 53.064 83.5964 52.776 83.9804 52.488L85.7084 50.568C86.6684 49.32 87.4364 48.072 88.2044 46.728L87.8204 50.376C87.7244 52.104 87.6284 53.736 87.6284 55.464C87.6284 56.328 87.7244 57.192 87.9164 58.152L88.3964 59.496L88.8764 60.168C89.1644 60.456 89.4524 60.552 89.9324 60.552H90.3164ZM82.2524 52.392L81.6764 52.104C81.1964 51.816 81.0044 51.144 80.9084 50.376C80.9084 49.704 81.0044 48.936 81.1004 48.168C81.1964 47.4 81.3884 46.536 81.6764 45.768C81.8684 45 82.1564 44.328 82.4444 43.56C82.8284 42.792 83.1164 42.12 83.5964 41.448C83.9804 40.776 84.4604 40.104 84.9404 39.624C85.5164 39.048 86.0924 38.568 86.7644 38.568H86.9564L87.2444 38.76C87.5324 38.952 87.7244 39.24 87.9164 39.624C88.3004 40.2 88.5884 40.968 88.8764 41.832V42.024L88.4924 45.096L87.9164 45.96C87.0524 47.4 86.0924 48.84 85.1324 50.088C84.5564 50.76 84.0764 51.336 83.4044 51.816C83.3084 52.008 83.1164 52.104 82.9244 52.2L82.4444 52.296L82.2524 52.392ZM91.1804 39.912C92.4284 33.576 93.9644 27.336 95.6924 21.096L97.1324 16.296L98.7644 11.496C99.4364 9.96 100.012 8.424 100.78 6.984C101.164 6.312 101.548 5.544 102.028 4.968L102.7 4.2L103.084 4.104L103.18 4.2C103.276 4.2 103.276 4.392 103.372 4.584L103.468 5.736L103.276 7.56L102.988 8.712C102.7 10.344 102.22 11.976 101.74 13.608C100.78 16.776 99.7244 20.04 98.5724 23.112C96.3644 28.872 93.9644 34.536 91.1804 39.912Z" fill="currentColor"/>
    <path d="M108.573 55.656L109.533 55.464C110.397 55.272 111.069 54.792 111.645 54.312C112.317 53.832 112.797 53.256 113.373 52.68L114.813 50.856C115.677 49.704 116.541 48.36 117.309 47.112L118.461 45.096C118.845 44.424 119.229 43.848 119.517 43.08V42.984L119.421 42.696C119.325 42.696 119.133 42.696 119.037 42.888C118.749 43.56 118.365 44.232 117.981 44.904C117.597 45.576 117.309 46.152 116.829 46.824C116.061 48.072 115.197 49.32 114.333 50.568C113.373 51.72 112.413 52.872 111.261 53.736C110.685 54.216 110.013 54.504 109.341 54.696C109.053 54.696 108.669 54.696 108.477 54.6C108.285 54.6 108.189 54.504 108.093 54.408C107.997 54.408 107.901 54.312 107.901 54.216C107.805 53.928 107.709 53.64 107.709 53.352C107.613 52.968 107.613 52.68 107.613 52.296L107.901 50.184L108.477 48.072C108.669 47.304 108.861 46.632 109.149 45.864L110.589 41.64L112.317 37.512L112.413 37.128C112.413 36.744 112.221 36.456 111.837 36.264L111.453 36.168C111.069 36.168 110.685 36.456 110.589 36.744L109.149 40.392L109.053 39.912C108.957 39.432 108.861 38.952 108.573 38.472C108.381 37.992 107.901 37.512 107.325 37.32C107.229 37.224 107.037 37.224 106.941 37.224C106.845 37.128 106.653 37.128 106.557 37.128H105.693C105.117 37.32 104.637 37.512 104.253 37.8C103.389 38.28 102.717 38.952 102.141 39.72C101.469 40.392 100.989 41.16 100.509 41.928L99.2609 44.424C98.8769 45.288 98.5889 46.152 98.3969 47.016C98.3009 47.496 98.2049 47.976 98.2049 48.456L98.1089 49.224L98.2049 49.896C98.2049 50.376 98.3009 50.952 98.6849 51.432C98.7809 51.72 99.0689 51.912 99.2609 52.104C99.5489 52.296 99.8369 52.392 100.125 52.392C100.413 52.392 100.701 52.392 100.989 52.296C101.277 52.296 101.469 52.2 101.757 52.008C102.141 51.816 102.525 51.528 102.909 51.24C104.253 49.992 105.309 48.552 106.269 47.112L107.421 45.384C107.037 46.824 106.653 48.36 106.461 49.896C106.269 50.472 106.173 51.048 106.173 51.624L106.269 52.296C106.269 52.68 106.269 53.16 106.365 53.544C106.461 53.928 106.653 54.408 106.941 54.792L107.517 55.368C107.709 55.464 107.997 55.56 108.189 55.56L108.573 55.656ZM100.797 51.336H100.317C100.029 51.24 99.9329 51.144 99.7409 50.856C99.6449 50.568 99.6449 50.184 99.6449 49.896C99.9329 45.672 103.773 38.664 106.461 38.472L106.653 38.568C107.805 38.76 108.381 40.488 108.381 42.408C107.901 44.04 106.653 45.48 105.789 46.824C104.445 48.648 102.621 51.144 100.797 51.336Z" fill="currentColor"/>
</svg>
