<svg viewBox="0 0 123 123" fill="none" xmlns="http://www.w3.org/2000/svg">
    <path fill-rule="evenodd" clip-rule="evenodd" d="M116.301 72.6621C118.05 67.597 119 62.1594 119 56.5C119 29.1619 96.8381 7 69.5 7C42.1619 7 20 29.1619 20 56.5C20 62.1594 20.9498 67.597 22.6986 72.6621C22.2394 70.0103 22 67.2831 22 64.5C22 38.2665 43.2665 17 69.5 17C95.7335 17 117 38.2665 117 64.5C117 67.2831 116.761 70.0103 116.301 72.6621Z" fill="#E4D6E4"/>
    <path fill-rule="evenodd" clip-rule="evenodd" d="M72.6621 6.69859C67.597 4.94976 62.1594 4 56.5 4C29.1619 4 7 26.1619 7 53.5C7 80.8381 29.1619 103 56.5 103C62.1594 103 67.597 102.05 72.6621 100.301C70.0103 100.761 67.2831 101 64.5 101C38.2665 101 17 79.7335 17 53.5C17 27.2665 38.2665 6 64.5 6C67.2831 6 70.0103 6.23935 72.6621 6.69859Z" fill="#E4D6E4"/>
    <path fill-rule="evenodd" clip-rule="evenodd" d="M6.69859 50.3379C4.94976 55.403 4 60.8406 4 66.5C4 93.8381 26.1619 116 53.5 116C80.8381 116 103 93.8381 103 66.5C103 60.8406 102.05 55.403 100.301 50.3379C100.761 52.9897 101 55.7169 101 58.5C101 84.7335 79.7335 106 53.5 106C27.2665 106 6 84.7335 6 58.5C6 55.7169 6.23935 52.9897 6.69859 50.3379Z" fill="#E4D6E4"/>
    <path fill-rule="evenodd" clip-rule="evenodd" d="M50.3379 116.301C55.403 118.05 60.8406 119 66.5 119C93.8381 119 116 96.8381 116 69.5C116 42.1619 93.8381 20 66.5 20C60.8406 20 55.403 20.9498 50.3379 22.6986C52.9897 22.2394 55.7169 22 58.5 22C84.7335 22 106 43.2665 106 69.5C106 95.7335 84.7335 117 58.5 117C55.7169 117 52.9897 116.761 50.3379 116.301Z" fill="#E4D6E4"/>
</svg>
