<svg width="64" height="64" viewBox="0 0 64 64" xmlns="http://www.w3.org/2000/svg">
    <path d="M26.2721 16C26.847 16 27.2535 16.1366 27.4916 16.4099C27.738 16.6832 27.8611 17.0168 27.8611 17.4107C27.8611 17.8206 27.738 18.1663 27.4916 18.4476C27.2535 18.729 26.847 18.8696 26.2721 18.8696C25.7055 18.8696 25.2908 18.729 25.028 18.4476C24.7734 18.1663 24.6461 17.8206 24.6461 17.4107C24.6461 17.0168 24.7734 16.6832 25.028 16.4099C25.2908 16.1366 25.7055 16 26.2721 16ZM37.1982 16C37.7895 16 38.2042 16.1366 38.4423 16.4099C38.6887 16.6832 38.8119 17.0168 38.8119 17.4107C38.8119 17.8206 38.6887 18.1663 38.4423 18.4476C38.2042 18.729 37.7895 18.8696 37.1982 18.8696C36.6398 18.8696 36.2333 18.729 35.9787 18.4476C35.7242 18.1663 35.5969 17.8206 35.5969 17.4107C35.5969 17.0168 35.7242 16.6832 35.9787 16.4099C36.2333 16.1366 36.6398 16 37.1982 16Z" fill="current-color"/>
    <path d="M30.8544 28.0814H32.6775V34.0618H30.8544V28.0814Z" fill="current-color"/>
    <path d="M31.9015 42.4537C33.2893 42.4537 34.6402 42.5823 35.9541 42.8395C37.268 43.1047 38.5203 43.5067 39.7111 44.0452C40.9018 44.5838 41.9981 45.263 43 46.0829V48C41.4397 46.8345 39.707 45.9583 37.8018 45.3715C35.8966 44.7847 33.938 44.4913 31.9261 44.4913C30.6122 44.4913 29.3147 44.6199 28.0336 44.8772C26.7607 45.1424 25.533 45.5323 24.3505 46.0467C23.168 46.5692 22.0511 47.2123 21 47.9759L21 46.0829C21.9854 45.263 23.0612 44.5838 24.2273 44.0452C25.3852 43.5067 26.6129 43.1047 27.9104 42.8395C29.2079 42.5823 30.5383 42.4537 31.9015 42.4537Z" fill="current-color"/>
</svg>
