<svg viewBox="0 0 164 27" fill="none" xmlns="http://www.w3.org/2000/svg">
    <path d="M0 0.467998H3.456V24.012H14.4L14.364 26.64H0V0.467998Z" fill="url(#paint0_linear_9_113)"/>
    <path d="M29.5391 0.467998L38.9711 26.64H35.2991L27.9911 5.544L27.7391 4.5L27.4871 5.544L23.4551 17.1L23.0591 17.856L23.4911 17.784H28.3511C29.2151 17.784 29.8751 18.048 30.3311 18.576C30.7871 19.08 31.1471 19.68 31.4111 20.376H22.3391L20.1791 26.64H16.7591L26.1911 0.467998H29.5391Z" fill="url(#paint1_linear_9_113)"/>
    <path d="M49.862 26.64L40.682 0.467998H44.39L51.446 21.96L51.698 23.148L51.986 21.996L59.006 0.467998H62.57L53.462 26.64H49.862Z" fill="url(#paint2_linear_9_113)"/>
    <path d="M76.9297 0.467998L86.3617 26.64H82.6898L75.3818 5.544L75.1298 4.5L74.8777 5.544L70.8457 17.1L70.4498 17.856L70.8818 17.784H75.7418C76.6058 17.784 77.2657 18.048 77.7217 18.576C78.1777 19.08 78.5378 19.68 78.8018 20.376H69.7298L67.5697 26.64H64.1497L73.5817 0.467998H76.9297Z" fill="url(#paint3_linear_9_113)"/>
    <path d="M94.6966 5.724L94.1926 4.5L94.2646 5.724V26.64H91.3486V0.467998H94.7686L107.477 20.772L107.909 21.96L107.837 20.7V0.467998H110.861V26.64H107.801L94.6966 5.724Z" fill="url(#paint4_linear_9_113)"/>
    <path d="M127.673 27.072C126.857 27.072 126.077 27.036 125.333 26.964C124.589 26.892 123.689 26.724 122.633 26.46C122.969 25.836 123.413 25.32 123.965 24.912C124.517 24.504 125.201 24.336 126.017 24.408C126.401 24.456 126.689 24.48 126.881 24.48C127.097 24.48 127.349 24.48 127.637 24.48C128.789 24.48 129.857 24.192 130.841 23.616C131.849 23.04 132.725 22.26 133.469 21.276C134.213 20.268 134.789 19.104 135.197 17.784C135.629 16.44 135.845 15.012 135.845 13.5C135.845 10.02 134.957 7.344 133.181 5.472C131.429 3.576 128.777 2.628 125.225 2.628C124.505 2.628 123.797 2.652 123.101 2.7C122.405 2.748 121.769 2.808 121.193 2.88V26.64H117.773V0.864C118.925 0.599999 120.185 0.395998 121.553 0.251999C122.945 0.0839996 124.169 0 125.225 0C127.505 0 129.533 0.312 131.309 0.935999C133.085 1.536 134.573 2.424 135.773 3.6C136.997 4.752 137.921 6.168 138.545 7.848C139.193 9.504 139.517 11.388 139.517 13.5C139.517 15.468 139.193 17.28 138.545 18.936C137.921 20.592 137.069 22.032 135.989 23.256C134.909 24.456 133.649 25.392 132.209 26.064C130.793 26.736 129.281 27.072 127.673 27.072Z" fill="url(#paint5_linear_9_113)"/>
    <path d="M154.273 0.467998L163.706 26.64H160.033L152.725 5.544L152.473 4.5L152.221 5.544L148.189 17.1L147.794 17.856L148.225 17.784H153.085C153.949 17.784 154.61 18.048 155.066 18.576C155.522 19.08 155.882 19.68 156.146 20.376H147.074L144.913 26.64H141.493L150.926 0.467998H154.273Z" fill="url(#paint6_linear_9_113)"/>
    <defs>
        <linearGradient id="paint0_linear_9_113" x1="28.5" y1="14" x2="130" y2="14" gradientUnits="userSpaceOnUse">
            <stop stop-color="#A78BFA"/>
            <stop offset="1" stop-color="#F9A8D4"/>
        </linearGradient>
        <linearGradient id="paint1_linear_9_113" x1="28.5" y1="14" x2="130" y2="14" gradientUnits="userSpaceOnUse">
            <stop stop-color="#A78BFA"/>
            <stop offset="1" stop-color="#F9A8D4"/>
        </linearGradient>
        <linearGradient id="paint2_linear_9_113" x1="28.5" y1="14" x2="130" y2="14" gradientUnits="userSpaceOnUse">
            <stop stop-color="#A78BFA"/>
            <stop offset="1" stop-color="#F9A8D4"/>
        </linearGradient>
        <linearGradient id="paint3_linear_9_113" x1="28.5" y1="14" x2="130" y2="14" gradientUnits="userSpaceOnUse">
            <stop stop-color="#A78BFA"/>
            <stop offset="1" stop-color="#F9A8D4"/>
        </linearGradient>
        <linearGradient id="paint4_linear_9_113" x1="28.5" y1="14" x2="130" y2="14" gradientUnits="userSpaceOnUse">
            <stop stop-color="#A78BFA"/>
            <stop offset="1" stop-color="#F9A8D4"/>
        </linearGradient>
        <linearGradient id="paint5_linear_9_113" x1="28.5" y1="14" x2="130" y2="14" gradientUnits="userSpaceOnUse">
            <stop stop-color="#A78BFA"/>
            <stop offset="1" stop-color="#F9A8D4"/>
        </linearGradient>
        <linearGradient id="paint6_linear_9_113" x1="28.5" y1="14" x2="130" y2="14" gradientUnits="userSpaceOnUse">
            <stop stop-color="#A78BFA"/>
            <stop offset="1" stop-color="#F9A8D4"/>
        </linearGradient>
    </defs>
</svg>
